<?xml version="1.0" standalone="no"?>
<!DOCTYPE svg PUBLIC "-//W3C//DTD SVG 20010904//EN"
 "http://www.w3.org/TR/2001/REC-SVG-20010904/DTD/svg10.dtd">
<svg version="1.0" xmlns="http://www.w3.org/2000/svg"
 width="283.000000pt" height="283.000000pt" viewBox="0 0 283.000000 283.000000"
 preserveAspectRatio="xMidYMid meet">
<metadata>
Created by potrace 1.14, written by Peter Selinger 2001-2017
</metadata>
<g transform="translate(0.000000,283.000000) scale(0.100000,-0.100000)"
fill="#000000" stroke="none">
<path d="M1219 2810 c0 -11 -1 -36 -1 -55 0 -19 1 -39 1 -45 1 -6 29 -10 64
-10 l62 0 1 65 1 65 -63 0 c-57 0 -64 -2 -65 -20z"/>
<path d="M960 2570 l0 -66 65 1 65 2 0 -1254 0 -1253 64 0 63 0 0 410 c1 405
3 440 33 440 4 0 56 29 115 64 l109 65 128 -129 128 -129 0 -360 0 -361 65 0
65 0 0 478 0 477 -258 260 -257 260 1 581 0 581 -193 0 -193 0 0 -67z"/>
<path d="M1539 649 c0 -197 0 -279 0 -496 l1 -153 65 0 65 0 -1 347 -1 347
-64 64 -64 65 -1 -174z"/>
</g>
</svg>
